<svg width="190" height="64" viewBox="0 0 190 64" fill="none" xmlns="http://www.w3.org/2000/svg">
<path d="M32.9455 14C23.0557 14 15 22.076 15 32C15 36.8422 16.8682 41.3764 20.2619 44.7643C23.6385 48.135 28.1463 50 32.9455 50C37.7618 50 42.2867 48.135 45.6633 44.7643C49.0398 41.3764 50.8909 36.8593 50.8909 32C50.8909 27.192 49.0398 22.6749 45.6633 19.27C42.2696 15.8821 37.7618 14 32.9455 14ZM23.6556 41.3764C21.4446 39.1521 20.1248 36.2776 19.8506 33.1635C26.1409 30.7338 30.1345 29.8612 32.9969 30.2548C33.5454 30.3403 33.8367 30.4259 33.991 30.4943C33.991 30.8536 33.8539 31.5722 33.7682 32.0684C33.4254 33.8308 32.9626 36.2433 34.2481 38.673C35.2593 40.5894 37.1276 42.0608 39.9728 43.1901C37.8989 44.5076 35.4822 45.2091 32.9283 45.2091C29.4318 45.2091 26.1409 43.8403 23.6556 41.3764ZM43.8464 39.4259C40.9498 38.6217 39.0987 37.5779 38.4816 36.4144C37.9846 35.4905 38.2245 34.2757 38.4816 32.9753C38.7902 31.384 39.1672 29.3992 37.9674 27.7053C37.1276 26.5247 35.7221 25.8061 33.6825 25.5152C30.3402 25.0361 26.3637 25.7205 20.4848 27.8251C22.2159 22.5894 27.1522 18.7909 32.9455 18.7909C36.4763 18.7909 39.7843 20.1597 42.2524 22.6578C44.7206 25.1388 46.0917 28.4753 46.0917 32C46.0917 34.7034 45.3033 37.27 43.8464 39.4259Z" fill="white"/>
<path d="M84.5184 22.5378C82.5816 20.7926 79.9077 19.9028 76.5655 19.9028H68.5269V44.2507H73.4803V38.6899H76.5826C79.9077 38.6899 82.5816 37.8002 84.5355 36.0549C86.4895 34.3097 87.4664 32.034 87.4664 29.2793C87.4493 26.5587 86.4723 24.2831 84.5184 22.5378ZM82.753 29.2793C82.753 30.8534 82.2045 32.0511 81.1075 32.8382C80.0106 33.6253 78.6051 34.0359 76.9597 34.0359H73.4803V24.5739H76.9597C78.588 24.5739 79.9934 24.9846 81.0904 25.8059C82.1874 26.6101 82.753 27.7736 82.753 29.2793Z" fill="white"/>
<path d="M95.3512 30.272H90.792V44.2682H95.3512V30.272Z" fill="white"/>
<path d="M104.504 19.9028H99.9109V44.2507H104.504V19.9028Z" fill="white"/>
<path d="M116.28 26.5762C113.829 26.5762 111.686 27.4488 109.955 29.194C108.224 30.9222 107.333 33.061 107.333 35.542C107.333 37.9887 108.207 40.1275 109.938 41.8556C111.669 43.5838 113.794 44.4735 116.28 44.4735C118.765 44.4735 120.907 43.6009 122.639 41.8556C124.37 40.1275 125.261 37.9887 125.261 35.542C125.261 33.0952 124.387 30.9564 122.639 29.2112C120.89 27.4659 118.765 26.5762 116.28 26.5762ZM120.65 35.542C120.65 36.8766 120.205 37.9716 119.348 38.7929C118.474 39.6313 117.445 40.042 116.28 40.042C115.08 40.042 114.051 39.6142 113.194 38.7929C112.337 37.9545 111.909 36.8594 111.909 35.542C111.909 34.2074 112.355 33.1123 113.212 32.2739C114.086 31.4355 115.114 31.0077 116.28 31.0077C117.445 31.0077 118.491 31.4355 119.348 32.2739C120.222 33.1123 120.65 34.2074 120.65 35.542Z" fill="white"/>
<path d="M134.02 21.0151H129.426V26.8155H127.181V31.23H129.426V44.268H134.02V31.23H136.282V26.8155H134.02V21.0151Z" fill="white"/>
<path d="M145.486 19.9028H141.407C141.253 19.9028 141.116 20.0055 141.081 20.1595L138.973 29.0568C138.956 29.1595 138.973 29.2621 139.042 29.3477C139.11 29.4332 139.196 29.4675 139.299 29.4675H142.024C142.161 29.4675 142.281 29.3819 142.333 29.245L145.778 20.3477C145.812 20.245 145.812 20.1253 145.743 20.0397C145.709 19.9542 145.606 19.9028 145.486 19.9028Z" fill="white"/>
<path d="M153.714 30.272H149.154V44.2682H153.714V30.272Z" fill="white"/>
<path d="M173.063 28.8689C171.76 27.3461 169.858 26.5762 167.39 26.5762C164.699 26.5762 162.71 27.5001 161.493 29.348L161.202 26.8157H158.1V44.2682H162.659V35.7131C162.659 34.1218 163.019 32.9412 163.704 32.1541C164.407 31.3842 165.401 30.9906 166.687 30.9906C169.206 30.9906 170.44 32.4108 170.44 35.3195V44.2511H175V35.0458C175.017 32.4621 174.348 30.3918 173.063 28.8689Z" fill="white"/>
<path d="M151.417 21.0151C150.629 21.0151 149.96 21.2889 149.429 21.8022C148.881 22.3326 148.606 22.9828 148.606 23.7699C148.606 24.5399 148.881 25.2072 149.429 25.7376C149.978 26.268 150.646 26.5246 151.417 26.5246C152.223 26.5246 152.908 26.2509 153.457 25.7376C154.005 25.2072 154.28 24.557 154.28 23.7699C154.28 22.9999 154.005 22.3326 153.457 21.8022C152.908 21.2718 152.223 21.0151 151.417 21.0151Z" fill="white"/>
<path d="M92.8489 20.7241C91.992 20.7241 91.2378 21.015 90.6379 21.5967C90.038 22.1785 89.7295 22.8971 89.7295 23.7526C89.7295 24.6082 90.038 25.3439 90.6379 25.9085C91.2378 26.4903 91.9748 26.7812 92.8489 26.7812C93.7402 26.7812 94.4944 26.4903 95.0943 25.9085C95.6942 25.3268 96.0027 24.6082 96.0027 23.7526C96.0027 22.8971 95.6942 22.1785 95.0943 21.5967C94.4944 21.015 93.7402 20.7241 92.8489 20.7241Z" fill="white"/>
</svg>
