<svg width="50" height="50" viewBox="0 0 50 50" fill="none" xmlns="http://www.w3.org/2000/svg">
<rect width="50" height="50" rx="5" fill="#F0FDFF"/>
<path d="M33.1094 18.9062L28.0938 13.8906C27.5312 13.3281 26.7812 13 25.9844 13H19C17.3125 13 16 14.3594 16 16V34C16 35.6875 17.3125 37 19 37H31C32.6406 37 34 35.6875 34 34V21.0156C34 20.2188 33.6719 19.4688 33.1094 18.9062ZM26.5 14.6406C26.6875 14.6875 26.875 14.7812 27.0625 14.9688L32.0312 19.9375C32.2188 20.125 32.3125 20.3125 32.3594 20.5H27.25C26.8281 20.5 26.5 20.1719 26.5 19.75V14.6406ZM32.5 34C32.5 34.8438 31.7969 35.5 31 35.5H19C18.1562 35.5 17.5 34.8438 17.5 34V16C17.5 15.2031 18.1562 14.5 19 14.5H25V19.75C25 21.0156 25.9844 22 27.25 22H32.5V34ZM20.5 25.75C20.5 26.1719 20.8281 26.5 21.25 26.5H28.75C29.125 26.5 29.5 26.1719 29.5 25.75C29.5 25.375 29.125 25 28.75 25H21.25C20.8281 25 20.5 25.375 20.5 25.75ZM28.75 28H21.25C20.8281 28 20.5 28.375 20.5 28.75C20.5 29.1719 20.8281 29.5 21.25 29.5H28.75C29.125 29.5 29.5 29.1719 29.5 28.75C29.5 28.375 29.125 28 28.75 28ZM28.75 31H21.25C20.8281 31 20.5 31.375 20.5 31.75C20.5 32.1719 20.8281 32.5 21.25 32.5H28.75C29.125 32.5 29.5 32.1719 29.5 31.75C29.5 31.375 29.125 31 28.75 31Z" fill="#0D4048"/>
</svg>
